# xmcd
#
# Track frame offsets:
#	150
#	4378
#	11041
#	17961
#	33406
#	49570
#	63893
#	83633
#	105548
#	110438
#	124368
#	145377
#	177327
#	191564
#	223514
#	238376
#	253066
#
# Disc length: 3659
#
# Revision: 2
# Processed by: cddbd v1.5.1PL0 Copyright (c) Steve Scherf et al.
# Submitted via: libkcddb 0.10
# Normalized: r1:TRMNUM
#
DISCID=f10e4911
DTITLE=New Title - New Artist
DYEAR=1900
DGENRE=
TTITLE0=TUNING NOTES
TTITLE1=CLASSICAL ROCK
TTITLE2=CLASSICAL ROCK (PB)
TTITLE3=STONES A MORSE
TTITLE4=STONES A MORSE (PB)
TTITLE5=FRITANDO
TTITLE6=FRITANDO (2000)
TTITLE7=EX. 13
TTITLE8=CONTRAPONTO I (DO CONTRA)
TTITLE9=LATIN JAZZ I (500 MILES)
TTITLE10=ESTUDO BOSSA II (BLUE BOSSA) (MIDI)
TTITLE11=ESTUDO BOSSA II 
TTITLE12=ESTUDO BLUES JAZZ II (ALL BLUES) (MIDI)
TTITLE13=ESTUDO BLUES JAZZ II 
TTITLE14=MASQUARELO
TTITLE15=BLUES MENOR EM 6 por 8 (FOOTPRINTS) (MIDI)
TTITLE16=BLUES MENOR EM 6 por 8 (FOOTPRINTS)
EXTD=
EXTT0=
EXTT1=
EXTT2=
EXTT3=
EXTT4=
EXTT5=
EXTT6=
EXTT7=
EXTT8=
EXTT9=
EXTT10=
EXTT11=
EXTT12=
EXTT13=
EXTT14=
EXTT15=
EXTT16=
PLAYORDER=
